Coordinates
version=1
nRows=20
nColumns=34
inDegrees=yes

Units are S.I. units (second, meters, Newtons, ...)
If the header above contains a line with 'inDegrees', this indicates whether rotational values are in degrees (yes) or radians (no).

endheader
time	pelvis_tilt	pelvis_list	pelvis_rotation	pelvis_tx	pelvis_ty	pelvis_tz	hip_flexion_r	hip_adduction_r	hip_rotation_r	knee_angle_r	ankle_angle_r	subtalar_angle_r	mtp_angle_r	hip_flexion_l	hip_adduction_l	hip_rotation_l	knee_angle_l	ankle_angle_l	subtalar_angle_l	mtp_angle_l	lumbar_extension	lumbar_bending	lumbar_rotation	arm_flex_r	arm_add_r	arm_rot_r	elbow_flex_r	pro_sup_r	arm_flex_l	arm_add_l	arm_rot_l	elbow_flex_l	pro_sup_l
      6.50000000	    -11.11404398	     -6.02071444	      9.28532784	      0.03901713	      0.97168172	     -0.18000120	     43.93780977	     -4.73382917	     -2.78603020	     16.87565558	    -11.99609717	    -10.52348947	      0.00000000	     30.26535709	      4.88357727	      7.41093432	     32.77693700	     -4.14059775	    -21.38312631	      0.00000000	     -7.12508109	      3.11004987	      6.52909012	     85.68805090	      1.21984768	     70.65956706	    119.79020902	     92.37559215	     81.49650634	     -4.16252582	     80.05255831	    125.27251578	     80.32383372
      6.51666670	    -11.08155343	     -6.62789406	      9.56753329	      0.03427566	      0.96406097	     -0.18069523	     44.81029321	     -4.71639437	     -3.36279591	     16.12034401	    -13.02489611	    -10.67463673	      0.00000000	     31.60251962	      4.78285836	      7.39112478	     35.36320087	     -1.47080765	    -21.21071626	      0.00000000	     -8.10326494	      3.86646817	      6.65249864	     87.56802289	      0.92077019	     71.04589689	    120.54053646	     92.05239256	     83.19624697	     -4.09321093	     80.01232233	    124.78325973	     80.24818869
      6.53333330	    -11.13420152	     -6.89752935	      9.53763415	      0.03090987	      0.96312800	     -0.18108212	     45.89906305	     -4.78297347	     -3.49117989	     15.91260706	    -13.97119161	    -10.49909440	      0.00000000	     32.94950882	      4.80110303	      6.94745786	     37.61602529	     -0.22262242	    -21.95952038	      0.00000000	     -9.16523503	      4.25693568	      6.77118888	     88.73697740	      1.11587109	     70.92430821	    120.66868905	     91.90561305	     84.19870543	     -4.52651374	     79.72570185	    124.76073855	     80.20853343
      6.55000000	    -11.11858562	     -7.08452220	      9.52250987	      0.02971641	      0.95599824	     -0.18055594	     46.70055391	     -4.92173827	     -3.85532637	     15.40719568	    -14.55672412	    -10.55831145	      0.00000000	     34.15056494	      4.88508804	      6.76839850	     39.93010655	      1.16392141	    -22.63227177	      0.00000000	    -10.09463515	      4.42236775	      6.77368776	     89.85678481	      1.26741351	     71.06880265	    120.75673966	     91.78794013	     85.29623340	     -4.92648498	     79.34783610	    124.68362705	     80.17283598
      6.56666670	    -11.08454672	     -7.25524086	      9.42210129	      0.02727218	      0.95041778	     -0.18069960	     47.40088616	     -4.92785903	     -4.23644473	     14.85437601	    -15.37564582	    -10.51371518	      0.00000000	     35.43323935	      4.86374130	      6.61662819	     42.29156893	      1.74533835	    -22.88819654	      0.00000000	    -10.98418775	      4.60433147	      6.96838558	     91.01171314	      1.17800731	     71.37263746	    121.02443218	     91.65802966	     86.12671884	     -5.20888669	     79.42574860	    125.04484481	     80.17363395
      6.58333330	    -10.93728071	     -7.34339951	      9.18277775	      0.02720665	      0.94233129	     -0.18072590	     47.98031245	     -4.92769503	     -4.36617197	     14.57079500	    -15.65688849	    -10.51998034	      0.00000000	     36.51133301	      4.98573788	      6.85967633	     44.64533589	      2.51117904	    -23.30078663	      0.00000000	    -11.56910476	      4.55260713	      7.32364001	     91.78162210	      0.99634484	     71.57299172	    120.99421765	     91.57135740	     86.86844203	     -5.14775204	     79.50870429	    125.37752630	     80.19121806
      6.60000000	    -11.11251755	     -7.43077610	      9.16981578	      0.02580331	      0.93593177	     -0.18073614	     48.90210077	     -5.07052679	     -4.54643890	     14.22859335	    -15.89825248	    -10.61344969	      0.00000000	     37.85502200	      5.17110457	      6.59387520	     46.84109425	      3.08520456	    -23.93799019	      0.00000000	    -12.10932362	      4.63566283	      7.86589513	     93.15897615	      0.99518298	     72.31045909	    121.52315503	     91.36829309	     87.78449850	     -4.98672223	     80.13499430	    126.11446476	     80.27506625
      6.61666670	    -11.10003076	     -7.36022275	      9.26210862	      0.02223674	      0.93334775	     -0.18124476	     49.36311548	     -5.41645862	     -4.45750062	     13.45188984	    -16.02768113	    -10.42874309	      0.00000000	     38.68629251	      5.59100347	      6.61421093	     48.48352800	      3.59898854	    -24.59154627	      0.00000000	    -12.80428610	      4.51869206	      7.80902881	     93.78595197	      0.95337208	     72.35703774	    121.48032595	     91.26378990	     88.57254108	     -5.10909741	     80.06174382	    125.85746779	     80.27989555
      6.63333330	    -11.04196436	     -7.43950573	      9.33206065	      0.01898299	      0.92740734	     -0.18027638	     49.93138270	     -5.62062959	     -4.39787617	     13.12942591	    -16.11282434	    -10.46065867	      0.00000000	     39.72785984	      5.83913249	      6.77481145	     50.43937913	      3.01861672	    -25.33735167	      0.00000000	    -13.79918079	      4.51344033	      7.81253880	     94.70676152	      0.86151601	     72.89361689	    121.91508645	     90.98220915	     89.67190330	     -5.34728599	     80.25755471	    125.20957461	     80.26962800
      6.65000000	    -11.06353655	     -7.56003730	      9.41807181	      0.01770336	      0.92016305	     -0.17867186	     50.59908670	     -5.69154610	     -4.12269509	     12.86444604	    -15.90728902	    -10.58358764	      0.00000000	     40.73612536	      5.96710679	      6.97575958	     52.05768045	      3.02213165	    -25.46822382	      0.00000000	    -14.63208942	      4.51926820	      7.78642778	     95.19627279	      1.09509044	     73.09965422	    121.93209431	     90.88911557	     90.72953609	     -5.69721246	     80.03028201	    124.20555675	     80.23368564
      6.66666670	    -11.02459927	     -7.69048158	      9.68937864	      0.01740777	      0.91540332	     -0.17957615	     50.97097840	     -5.82753853	     -3.53710098	     12.69402591	    -15.63485952	    -10.60542062	      0.00000000	     41.56320276	      6.24125873	      7.28435448	     53.62609881	      3.68061652	    -25.77086544	      0.00000000	    -15.29444619	      4.49154733	      7.64322018	     95.60374479	      0.85759474	     73.75365675	    122.04306097	     90.57937648	     91.66135832	     -5.60824987	     80.39847513	    122.29954812	     80.10633393
      6.68333330	    -11.05840347	     -7.83735713	      9.51764408	      0.01314794	      0.90538944	     -0.17874233	     51.94890099	     -5.70973088	     -3.08809209	     13.16635045	    -15.26399760	    -10.67942743	      0.00000000	     42.99587856	      6.34780975	      7.29814744	     55.76333109	      4.58202263	    -26.45103522	      0.00000000	    -16.14343864	      4.45032887	      7.62623995	     96.40543921	      0.84136776	     73.39026886	    122.06444728	     90.47342782	     93.03320892	     -6.22167560	     79.82084083	    121.45261958	     80.03920864
      6.70000000	    -11.13006375	     -7.92335108	      9.47441128	      0.01023425	      0.89871907	     -0.17941648	     53.07017495	     -5.80762129	     -2.43889090	     13.84097830	    -14.83205557	    -10.75394276	      0.00000000	     44.19619864	      6.71605071	      7.57789469	     57.48410891	      5.50459155	    -26.82234700	      0.00000000	    -16.90624842	      4.43970522	      7.39639552	     97.19468454	      0.69667260	     73.20625014	    122.03833481	     90.38234218	     94.38273305	     -6.62072745	     79.38069424	    120.62547257	     79.97716389
      6.71666670	    -11.46824702	     -7.81234414	      9.47680449	      0.00640121	      0.88984488	     -0.18000824	     54.50456520	     -6.25406237	     -1.76566666	     14.50364608	    -14.93398015	    -11.03897705	      0.00000000	     45.74989843	      7.39347870	      7.65253886	     59.29158918	      6.63879760	    -27.04885237	      0.00000000	    -17.49754486	      4.28869828	      7.26604355	     98.27224576	      0.58301348	     73.11243673	    122.46079970	     90.18065346	     95.67257779	     -6.69309139	     79.43744854	    119.78269296	     79.89410277
      6.73333330	    -11.90680824	     -7.76415468	      9.16096517	      0.00200779	      0.88142642	     -0.17889073	     56.17359939	     -6.32476560	     -1.24115409	     15.23339599	    -15.28998550	    -11.58938411	      0.00000000	     47.50325653	      7.67157471	      7.44131842	     61.28953312	      6.85354113	    -27.68761564	      0.00000000	    -18.01383169	      4.05433597	      7.34652975	     99.23613944	      0.24064926	     72.95350943	    122.63460025	     89.82754230	     97.12713043	     -6.76938315	     79.79558814	    118.63418786	     79.70868129
      6.75000000	    -12.12844617	     -7.84747795	      9.16745708	      0.00142029	      0.87337007	     -0.17748855	     57.39593556	     -6.40883392	     -0.91563621	     15.63607658	    -15.21989831	    -11.75601316	      0.00000000	     48.59819576	      7.93084460	      7.78509047	     62.77822470	      7.94065111	    -28.14932187	      0.00000000	    -18.74507996	      4.07929783	      7.24075889	    100.15363519	      0.52563363	     72.71453835	    122.58979391	     89.72935605	     98.47737661	     -6.93477202	     79.47038880	    117.59810728	     79.62170387
      6.76666670	    -12.61537998	     -7.79273624	      8.91288406	      0.00112732	      0.86471186	     -0.17736722	     58.73355429	     -6.44770548	     -0.29665405	     16.03596198	    -15.05436901	    -11.76177036	      0.00000000	     50.09309323	      8.08136008	      7.78990512	     64.33551372	      9.59583590	    -27.43262215	      0.00000000	    -19.08308166	      3.50509156	      7.22413223	    100.95619448	      0.18740988	     72.85070787	    123.30730535	     89.44642456	     99.88975014	     -6.83869232	     80.42569218	    117.20009825	     79.41957690
      6.78333330	    -12.90423380	     -7.81563408	      8.63766453	     -0.00049501	      0.85535074	     -0.17705558	     60.13955139	     -6.34401151	      0.13149360	     16.71961659	    -14.58671079	    -12.12635905	      0.00000000	     51.22782543	      8.29681037	      7.66466614	     66.22739516	     10.09995258	    -27.79214346	      0.00000000	    -19.42161681	      3.43872540	      7.59689287	    101.64442665	      0.11438268	     73.06184152	    123.18763301	     89.25751424	    100.63955683	     -6.65056366	     80.66095732	    116.62373351	     79.25291906
      6.80000000	    -13.24029876	     -7.88916568	      8.82606208	     -0.00545083	      0.85050523	     -0.17730290	     61.31663050	     -6.55618793	      0.79430108	     17.34013103	    -14.25198741	    -12.46769560	      0.00000000	     52.53788320	      8.80029756	      7.80035995	     67.82746082	     10.49481940	    -27.87344618	      0.00000000	    -20.01116407	      3.51472249	      7.71495177	    102.60939507	     -0.05248339	     73.42238082	    123.09314647	     89.06149222	    101.65301136	     -6.38738797	     81.07605269	    116.66360381	     79.12334976
      6.81666670	    -13.50684652	     -7.76916679	      8.85059350	     -0.00750206	      0.84029459	     -0.17750840	     62.48205947	     -6.81713529	      1.35051999	     17.74392046	    -13.84407153	    -12.54983998	      0.00000000	     53.84681250	      9.43420314	      7.95491811	     69.27294813	     11.68700736	    -27.37607307	      0.00000000	    -20.63353127	      3.42901047	      8.00925568	    103.83914631	     -0.12791217	     73.93941960	    123.03450334	     88.81825445	    102.79862222	     -6.15612142	     81.57223139	    116.85315470	     79.01189151
